<?xml version="1.0" standalone="no"?>
<!DOCTYPE svg PUBLIC "-//W3C//DTD SVG 20010904//EN"
 "http://www.w3.org/TR/2001/REC-SVG-20010904/DTD/svg10.dtd">
<svg version="1.0" xmlns="http://www.w3.org/2000/svg"
 width="512.000000pt" height="512.000000pt" viewBox="0 0 512.000000 512.000000"
 preserveAspectRatio="xMidYMid meet">

<g transform="translate(0.000000,512.000000) scale(0.100000,-0.100000)"
fill="#000000" stroke="none">
<path d="M2422 5100 c-104 -28 -167 -65 -247 -145 -71 -71 -122 -159 -144
-250 -10 -38 -14 -41 -78 -64 -113 -39 -302 -135 -413 -209 -455 -305 -749
-797 -800 -1337 -6 -63 -10 -395 -10 -777 0 -418 -4 -695 -11 -743 -19 -138
-47 -225 -199 -605 -165 -413 -171 -436 -128 -512 13 -22 41 -51 64 -64 l41
-24 720 0 720 0 30 -47 c36 -55 140 -161 197 -199 107 -73 271 -124 396 -124
147 0 339 70 448 164 60 52 137 138 158 178 l15 28 721 0 721 0 41 24 c23 13
51 42 64 64 43 76 37 99 -128 512 -152 380 -180 467 -199 605 -7 48 -11 325
-11 743 0 382 -4 714 -10 777 -51 538 -346 1032 -797 1335 -118 79 -283 164
-401 206 -81 28 -83 30 -92 69 -16 64 -78 181 -126 234 -134 149 -350 214
-542 161z m418 -740 c142 -29 263 -70 382 -132 396 -203 667 -556 770 -1001
21 -88 22 -125 28 -872 7 -832 7 -838 60 -1040 17 -62 116 -325 217 -572 4
-10 -347 -13 -1737 -13 -1390 0 -1741 3 -1737 13 104 255 200 511 217 577 52
203 52 197 60 1030 6 741 8 790 27 875 143 625 636 1075 1265 1155 112 14 328
4 448 -20z"/>
</g>
</svg>
