<?xml version="1.0" standalone="no"?>
<!DOCTYPE svg PUBLIC "-//W3C//DTD SVG 20010904//EN"
 "http://www.w3.org/TR/2001/REC-SVG-20010904/DTD/svg10.dtd">
<svg version="1.0" xmlns="http://www.w3.org/2000/svg"
 width="512.000000pt" height="512.000000pt" viewBox="0 0 512.000000 512.000000"
 preserveAspectRatio="xMidYMid meet">

<g transform="translate(0.000000,512.000000) scale(0.100000,-0.100000)"
fill="#000000" stroke="none">
<path d="M55 4956 c-29 -13 -55 -51 -55 -82 0 -24 28 -71 47 -80 10 -5 186
-11 392 -14 l374 -5 342 -1460 c189 -803 352 -1489 364 -1525 63 -199 235
-356 447 -410 43 -11 92 -20 111 -20 30 0 33 3 34 33 1 32 1 32 8 4 l6 -28
1073 -2 1072 -2 1 30 1 30 7 -30 c8 -39 28 -41 132 -15 194 50 333 155 422
320 19 36 42 90 50 120 33 116 229 1129 234 1205 7 106 -15 207 -68 315 -74
150 -230 280 -389 323 -48 13 -240 15 -1480 13 l-1425 -2 -59 -22 c-122 -45
-237 -135 -311 -244 -22 -34 -36 -47 -39 -37 -3 8 -86 358 -185 779 -99 421
-183 773 -186 781 -14 36 -47 39 -473 39 -322 -1 -424 -4 -447 -14z m4585
-1486 c185 -72 306 -265 285 -455 -3 -33 -55 -305 -115 -605 -82 -415 -114
-559 -135 -602 -51 -108 -141 -187 -260 -229 -55 -19 -83 -20 -1215 -20 -1144
0 -1160 1 -1220 21 -129 43 -228 138 -274 260 -31 85 -236 1139 -236 1215 0
182 106 341 274 409 l54 22 1403 -1 c1159 -1 1410 -4 1439 -15z"/>
<path d="M2110 1003 c-130 -14 -272 -108 -329 -220 -111 -218 -29 -479 184
-584 285 -140 615 64 615 380 -1 250 -221 449 -470 424z m140 -210 c123 -50
176 -202 113 -323 -54 -101 -165 -148 -274 -117 -164 48 -224 254 -112 378 75
82 170 104 273 62z"/>
<path d="M4003 1000 c-80 -12 -176 -62 -239 -124 -167 -167 -162 -442 11 -605
271 -257 715 -65 715 309 0 259 -229 457 -487 420z m167 -210 c196 -99 163
-386 -52 -442 -77 -20 -148 2 -213 65 -79 77 -96 166 -51 262 57 123 197 174
316 115z"/>
</g>
</svg>
