<?xml version="1.0" standalone="no"?>
<!DOCTYPE svg PUBLIC "-//W3C//DTD SVG 20010904//EN"
 "http://www.w3.org/TR/2001/REC-SVG-20010904/DTD/svg10.dtd">
<svg version="1.0" xmlns="http://www.w3.org/2000/svg"
 width="512.000000pt" height="512.000000pt" viewBox="0 0 512.000000 512.000000"
 preserveAspectRatio="xMidYMid meet">

<g transform="translate(0.000000,512.000000) scale(0.100000,-0.100000)"
fill="#000000" stroke="none">
<path d="M2335 4944 c-600 -81 -1107 -450 -1367 -994 -149 -313 -204 -702
-139 -991 129 -573 619 -1434 1423 -2501 98 -130 192 -248 209 -262 64 -55
153 -46 216 20 56 58 397 513 566 756 686 984 1048 1719 1073 2183 21 377
-125 822 -374 1135 -65 81 -215 231 -297 295 -369 290 -850 422 -1310 359z
m493 -328 c515 -105 933 -470 1097 -959 66 -196 90 -431 61 -595 -64 -364
-349 -927 -848 -1675 -219 -328 -559 -797 -578 -797 -12 0 -224 284 -397 530
-597 853 -957 1532 -1029 1942 -38 218 10 509 126 756 126 269 380 531 641
663 140 70 322 127 474 148 94 13 362 5 453 -13z"/>
<path d="M2417 4309 c-128 -19 -291 -83 -406 -161 -82 -55 -222 -207 -272
-293 -103 -179 -134 -295 -133 -495 0 -160 13 -229 65 -359 46 -114 114 -216
209 -312 132 -135 287 -222 471 -266 114 -27 328 -25 439 5 188 51 309 121
445 257 136 137 206 258 257 445 31 118 32 347 0 461 -103 376 -397 649 -769
714 -92 16 -213 18 -306 4z m277 -324 c289 -61 506 -329 506 -625 0 -297 -218
-565 -510 -626 -94 -20 -229 -14 -320 15 -312 98 -503 425 -435 745 72 341
416 564 759 491z"/>
</g>
</svg>
