<?xml version="1.0" standalone="no"?>
<!DOCTYPE svg PUBLIC "-//W3C//DTD SVG 20010904//EN"
 "http://www.w3.org/TR/2001/REC-SVG-20010904/DTD/svg10.dtd">
<svg version="1.0" xmlns="http://www.w3.org/2000/svg"
 width="512.000000pt" height="512.000000pt" viewBox="0 0 512.000000 512.000000"
 preserveAspectRatio="xMidYMid meet">

<g transform="translate(0.000000,512.000000) scale(0.100000,-0.100000)"
fill="#000000" stroke="none">
<path d="M2385 5109 c-185 -24 -441 -128 -590 -241 -158 -119 -320 -317 -396
-483 -88 -196 -124 -378 -116 -589 6 -149 20 -231 63 -361 78 -236 248 -469
453 -621 l79 -58 -87 -36 c-563 -232 -1005 -736 -1161 -1323 -62 -235 -65
-265 -65 -804 0 -481 0 -492 21 -519 11 -15 33 -37 48 -48 l27 -21 1886 -3
1885 -2 38 21 c21 12 47 38 59 59 21 37 21 48 21 488 0 496 -7 589 -59 793
-126 497 -431 921 -866 1202 -76 49 -262 144 -337 172 -27 10 -48 20 -48 24 0
3 19 18 43 33 103 65 256 222 339 348 139 211 208 442 208 700 0 350 -125 655
-370 901 -284 285 -675 419 -1075 368z m410 -328 c100 -26 261 -104 341 -164
187 -142 323 -358 369 -586 21 -104 16 -333 -9 -425 -78 -280 -264 -510 -511
-631 -553 -270 -1205 28 -1367 626 -19 72 -23 107 -22 244 0 191 17 266 94
421 133 272 374 460 670 523 123 27 314 23 435 -8z m95 -2250 c676 -148 1170
-644 1321 -1326 20 -92 22 -134 26 -497 l5 -398 -1686 0 -1686 0 0 338 c0 233
5 370 15 444 98 738 651 1314 1390 1448 151 27 472 22 615 -9z"/>
</g>
</svg>
